<?xml version="1.0" encoding="UTF-8" standalone="no"?>
<svg
   xmlns:dc="http://purl.org/dc/elements/1.1/"
   xmlns:cc="http://creativecommons.org/ns#"
   xmlns:rdf="http://www.w3.org/1999/02/22-rdf-syntax-ns#"
   xmlns:svg="http://www.w3.org/2000/svg"
   xmlns="http://www.w3.org/2000/svg"
   xmlns:sodipodi="http://sodipodi.sourceforge.net/DTD/sodipodi-0.dtd"
   xmlns:inkscape="http://www.inkscape.org/namespaces/inkscape"
   aria-hidden="true"
   data-prefix="fas"
   data-icon="robot"
   class="svg-inline--fa fa-robot fa-w-20"
   role="img"
   viewBox="0 0 640 512"
   version="1.1"
   id="svg5190"
   sodipodi:docname="robot-solid.svg"
   inkscape:version="0.92.3 (d244b95, 2018-08-02)">
  <metadata
     id="metadata5196">
    <rdf:RDF>
      <cc:Work
         rdf:about="">
        <dc:format>image/svg+xml</dc:format>
        <dc:type
           rdf:resource="http://purl.org/dc/dcmitype/StillImage" />
      </cc:Work>
    </rdf:RDF>
  </metadata>
  <defs
     id="defs5194" />
  <sodipodi:namedview
     pagecolor="#ffffff"
     bordercolor="#666666"
     borderopacity="1"
     objecttolerance="10"
     gridtolerance="10"
     guidetolerance="10"
     inkscape:pageopacity="0"
     inkscape:pageshadow="2"
     inkscape:window-width="716"
     inkscape:window-height="480"
     id="namedview5192"
     showgrid="false"
     inkscape:zoom="0.4609375"
     inkscape:cx="320"
     inkscape:cy="256"
     inkscape:window-x="67"
     inkscape:window-y="27"
     inkscape:window-maximized="0"
     inkscape:current-layer="svg5190" />
  <path
     fill="currentColor"
     d="M0 256v128c0 17.7 14.3 32 32 32h32V224H32c-17.7 0-32 14.3-32 32zM464 96H352V32c0-17.7-14.3-32-32-32s-32 14.3-32 32v64H176c-44.2 0-80 35.8-80 80v272c0 35.3 28.7 64 64 64h320c35.3 0 64-28.7 64-64V176c0-44.2-35.8-80-80-80zM256 416h-64v-32h64v32zm-32-120c-22.1 0-40-17.9-40-40s17.9-40 40-40 40 17.9 40 40-17.9 40-40 40zm128 120h-64v-32h64v32zm96 0h-64v-32h64v32zm-32-120c-22.1 0-40-17.9-40-40s17.9-40 40-40 40 17.9 40 40-17.9 40-40 40zm192-72h-32v192h32c17.7 0 32-14.3 32-32V256c0-17.7-14.3-32-32-32z"
     id="path5188"
     style="fill:#8080ff;fill-opacity:1" />
</svg>
