<?xml version="1.0" encoding="UTF-8" standalone="no"?>
<svg
   xmlns:dc="http://purl.org/dc/elements/1.1/"
   xmlns:cc="http://creativecommons.org/ns#"
   xmlns:rdf="http://www.w3.org/1999/02/22-rdf-syntax-ns#"
   xmlns:svg="http://www.w3.org/2000/svg"
   xmlns="http://www.w3.org/2000/svg"
   xmlns:sodipodi="http://sodipodi.sourceforge.net/DTD/sodipodi-0.dtd"
   xmlns:inkscape="http://www.inkscape.org/namespaces/inkscape"
   aria-hidden="true"
   data-prefix="fas"
   data-icon="space-shuttle"
   class="svg-inline--fa fa-space-shuttle fa-w-20"
   role="img"
   viewBox="0 0 640 512"
   version="1.1"
   id="svg5777"
   sodipodi:docname="space-shuttle-solid.svg"
   inkscape:version="0.92.3 (d244b95, 2018-08-02)">
  <metadata
     id="metadata5783">
    <rdf:RDF>
      <cc:Work
         rdf:about="">
        <dc:format>image/svg+xml</dc:format>
        <dc:type
           rdf:resource="http://purl.org/dc/dcmitype/StillImage" />
      </cc:Work>
    </rdf:RDF>
  </metadata>
  <defs
     id="defs5781" />
  <sodipodi:namedview
     pagecolor="#ffffff"
     bordercolor="#666666"
     borderopacity="1"
     objecttolerance="10"
     gridtolerance="10"
     guidetolerance="10"
     inkscape:pageopacity="0"
     inkscape:pageshadow="2"
     inkscape:window-width="716"
     inkscape:window-height="480"
     id="namedview5779"
     showgrid="false"
     inkscape:zoom="0.4609375"
     inkscape:cx="320"
     inkscape:cy="256"
     inkscape:window-x="67"
     inkscape:window-y="27"
     inkscape:window-maximized="0"
     inkscape:current-layer="svg5777" />
  <path
     fill="currentColor"
     d="M592.604 208.244C559.735 192.836 515.777 184 472 184H186.327c-4.952-6.555-10.585-11.978-16.72-16H376C229.157 137.747 219.403 32 96.003 32H96v128H80V32c-26.51 0-48 28.654-48 64v64c-23.197 0-32 10.032-32 24v40c0 13.983 8.819 24 32 24v16c-23.197 0-32 10.032-32 24v40c0 13.983 8.819 24 32 24v64c0 35.346 21.49 64 48 64V352h16v128h.003c123.4 0 133.154-105.747 279.997-136H169.606c6.135-4.022 11.768-9.445 16.72-16H472c43.777 0 87.735-8.836 120.604-24.244C622.282 289.845 640 271.992 640 256s-17.718-33.845-47.396-47.756zM488 296a8 8 0 0 1-8-8v-64a8 8 0 0 1 8-8c31.909 0 31.942 80 0 80z"
     id="path5775"
     style="fill:#8080ff;fill-opacity:1" />
</svg>
